<svg xmlns="http://www.w3.org/2000/svg" xmlns:xlink="http://www.w3.org/1999/xlink" width="40" zoomAndPan="magnify" viewBox="0 0 30 30.000001" height="40" preserveAspectRatio="xMidYMid meet" version="1.0"><defs><clipPath id="4ba9c673c1"><path d="M 0.484375 0 L 29.515625 0 L 29.515625 29.03125 L 0.484375 29.03125 Z M 0.484375 0 " cliprule="nonzero"/></clipPath><clipPath id="8cc44cf7f3"><path d="M 15 0 C 6.984375 0 0.484375 6.5 0.484375 14.515625 C 0.484375 22.53125 6.984375 29.03125 15 29.03125 C 23.015625 29.03125 29.515625 22.53125 29.515625 14.515625 C 29.515625 6.5 23.015625 0 15 0 " cliprule="nonzero"/></clipPath><clipPath id="1030f4fa55"><path d="M 4.40625 11 L 8 11 L 8 16 L 4.40625 16 Z M 4.40625 11 " cliprule="nonzero"/></clipPath><clipPath id="613c7984b9"><path d="M 22 13 L 25.453125 13 L 25.453125 18 L 22 18 Z M 22 13 " cliprule="nonzero"/></clipPath><clipPath id="5a1401d479"><path d="M 10 20 L 18 20 L 18 24.96875 L 10 24.96875 Z M 10 20 " cliprule="nonzero"/></clipPath><clipPath id="f391c1b20b"><path d="M 12 3.921875 L 20 3.921875 L 20 9 L 12 9 Z M 12 3.921875 " cliprule="nonzero"/></clipPath><clipPath id="587070118a"><path d="M 14 20 L 20 20 L 20 24.96875 L 14 24.96875 Z M 14 20 " cliprule="nonzero"/></clipPath></defs><g clip-path="url(#4ba9c673c1)"><g clip-path="url(#8cc44cf7f3)"><path fill="#213644" d="M 0.484375 0 L 29.515625 0 L 29.515625 29.03125 L 0.484375 29.03125 Z M 0.484375 0 " fill-opacity="1" fillRule="nonzero"/></g></g><path fill="#c6ab7c" d="M 5.816406 18.175781 L 22.207031 21.011719 L 24.042969 10.792969 L 7.652344 7.953125 Z M 22.507812 21.820312 C 22.488281 21.820312 22.46875 21.816406 22.445312 21.8125 L 5.316406 18.851562 C 5.21875 18.832031 5.132812 18.777344 5.074219 18.695312 C 5.015625 18.617188 4.992188 18.511719 5.011719 18.417969 L 6.980469 7.457031 C 7.019531 7.253906 7.210938 7.117188 7.414062 7.152344 L 24.546875 10.117188 C 24.640625 10.132812 24.730469 10.1875 24.789062 10.269531 C 24.84375 10.351562 24.867188 10.453125 24.847656 10.550781 L 22.878906 21.511719 C 22.847656 21.695312 22.6875 21.820312 22.507812 21.820312 " fill-opacity="1" fillRule="nonzero"/><path fill="#c6ab7c" d="M 20.171875 12.238281 C 19.460938 12.238281 18.828125 12.75 18.699219 13.472656 C 18.628906 13.867188 18.714844 14.265625 18.949219 14.59375 C 19.175781 14.921875 19.519531 15.140625 19.914062 15.210938 C 20.308594 15.28125 20.707031 15.191406 21.035156 14.960938 C 21.363281 14.734375 21.578125 14.386719 21.648438 13.996094 C 21.71875 13.601562 21.628906 13.203125 21.398438 12.875 C 21.171875 12.546875 20.824219 12.332031 20.433594 12.261719 C 20.347656 12.246094 20.257812 12.238281 20.171875 12.238281 Z M 20.179688 15.980469 C 20.046875 15.980469 19.917969 15.96875 19.785156 15.945312 C 19.195312 15.84375 18.679688 15.515625 18.332031 15.023438 C 17.992188 14.53125 17.855469 13.933594 17.960938 13.34375 C 18.179688 12.121094 19.34375 11.304688 20.5625 11.523438 C 21.152344 11.625 21.667969 11.957031 22.015625 12.449219 C 22.355469 12.9375 22.492188 13.53125 22.386719 14.125 C 22.285156 14.714844 21.957031 15.230469 21.460938 15.574219 C 21.082031 15.84375 20.632812 15.980469 20.179688 15.980469 " fill-opacity="1" fillRule="nonzero"/><path fill="#c6ab7c" d="M 16.550781 20.789062 C 16.4375 20.789062 16.320312 20.734375 16.246094 20.632812 L 10.328125 12.335938 L 6.25 15.136719 C 6.078125 15.253906 5.84375 15.210938 5.726562 15.039062 C 5.609375 14.871094 5.65625 14.636719 5.824219 14.519531 L 10.203125 11.511719 C 10.375 11.394531 10.601562 11.433594 10.722656 11.601562 L 16.859375 20.195312 C 16.976562 20.363281 16.9375 20.597656 16.769531 20.71875 C 16.703125 20.765625 16.628906 20.789062 16.550781 20.789062 " fill-opacity="1" fillRule="nonzero"/><path fill="#c6ab7c" d="M 21.023438 21.5625 C 20.902344 21.5625 20.789062 21.507812 20.714844 21.402344 L 17.246094 16.546875 L 14.925781 18.144531 C 14.753906 18.261719 14.519531 18.21875 14.402344 18.046875 C 14.285156 17.878906 14.332031 17.644531 14.5 17.527344 L 17.128906 15.722656 C 17.292969 15.605469 17.527344 15.644531 17.644531 15.8125 L 21.324219 20.96875 C 21.445312 21.136719 21.410156 21.371094 21.238281 21.492188 C 21.175781 21.539062 21.09375 21.5625 21.023438 21.5625 " fill-opacity="1" fillRule="nonzero"/><g clip-path="url(#1030f4fa55)"><path fill="#c6ab7c" d="M 5.960938 15.628906 C 5.808594 15.628906 5.667969 15.535156 5.609375 15.382812 L 4.46875 12.300781 C 4.433594 12.207031 4.433594 12.101562 4.480469 12.011719 C 4.519531 11.921875 4.597656 11.851562 4.691406 11.816406 L 6.507812 11.164062 C 6.699219 11.09375 6.914062 11.195312 6.984375 11.390625 C 7.054688 11.585938 6.953125 11.800781 6.757812 11.871094 L 5.300781 12.394531 L 6.308594 15.121094 C 6.382812 15.316406 6.285156 15.53125 6.089844 15.601562 C 6.046875 15.617188 6.003906 15.628906 5.960938 15.628906 " fill-opacity="1" fillRule="nonzero"/></g><g clip-path="url(#613c7984b9)"><path fill="#c6ab7c" d="M 23.226562 17.824219 C 23.074219 17.824219 22.929688 17.730469 22.875 17.574219 C 22.808594 17.378906 22.90625 17.167969 23.101562 17.097656 L 24.558594 16.574219 L 23.546875 13.847656 C 23.476562 13.648438 23.574219 13.4375 23.769531 13.363281 C 23.960938 13.289062 24.179688 13.390625 24.25 13.582031 L 25.394531 16.667969 C 25.429688 16.761719 25.425781 16.867188 25.382812 16.957031 C 25.339844 17.046875 25.261719 17.117188 25.167969 17.148438 L 23.355469 17.800781 C 23.3125 17.816406 23.273438 17.824219 23.226562 17.824219 " fill-opacity="1" fillRule="nonzero"/></g><path fill="#c6ab7c" d="M 8.695312 23.007812 C 8.546875 23.007812 8.402344 22.914062 8.34375 22.761719 L 6.925781 18.941406 C 6.855469 18.746094 6.953125 18.53125 7.148438 18.457031 C 7.34375 18.382812 7.558594 18.488281 7.628906 18.679688 L 8.921875 22.15625 L 15.324219 19.871094 C 15.519531 19.800781 15.730469 19.902344 15.800781 20.097656 C 15.871094 20.292969 15.769531 20.503906 15.574219 20.574219 L 8.820312 22.988281 C 8.78125 23 8.738281 23.007812 8.695312 23.007812 " fill-opacity="1" fillRule="nonzero"/><path fill="#c6ab7c" d="M 22.582031 10.53125 C 22.429688 10.53125 22.285156 10.4375 22.230469 10.289062 L 20.941406 6.8125 L 14.535156 9.097656 C 14.34375 9.167969 14.128906 9.066406 14.058594 8.867188 C 13.988281 8.675781 14.089844 8.460938 14.285156 8.390625 L 21.035156 5.980469 C 21.230469 5.910156 21.445312 6.011719 21.515625 6.203125 L 22.933594 10.023438 C 23.007812 10.21875 22.90625 10.433594 22.714844 10.507812 C 22.667969 10.523438 22.625 10.53125 22.582031 10.53125 " fill-opacity="1" fillRule="nonzero"/><g clip-path="url(#5a1401d479)"><path fill="#c6ab7c" d="M 13.691406 24.96875 C 13.605469 24.96875 13.519531 24.941406 13.449219 24.886719 L 10.277344 22.273438 C 10.121094 22.140625 10.097656 21.902344 10.226562 21.746094 C 10.359375 21.585938 10.597656 21.566406 10.753906 21.695312 L 13.644531 24.070312 L 16.890625 20.277344 C 17.023438 20.121094 17.261719 20.101562 17.421875 20.234375 C 17.578125 20.371094 17.597656 20.609375 17.460938 20.765625 L 13.972656 24.839844 C 13.898438 24.925781 13.792969 24.96875 13.691406 24.96875 " fill-opacity="1" fillRule="nonzero"/></g><g clip-path="url(#f391c1b20b)"><path fill="#c6ab7c" d="M 12.691406 8.820312 C 12.605469 8.820312 12.515625 8.789062 12.445312 8.730469 C 12.289062 8.597656 12.269531 8.359375 12.40625 8.203125 L 15.894531 4.128906 C 16.027344 3.972656 16.261719 3.953125 16.417969 4.082031 L 19.589844 6.695312 C 19.746094 6.828125 19.769531 7.0625 19.636719 7.222656 C 19.507812 7.382812 19.273438 7.402344 19.113281 7.269531 L 16.222656 4.894531 L 12.976562 8.691406 C 12.898438 8.773438 12.796875 8.820312 12.691406 8.820312 " fill-opacity="1" fillRule="nonzero"/></g><g clip-path="url(#587070118a)"><path fill="#c6ab7c" d="M 19.007812 24.222656 C 18.984375 24.222656 18.960938 24.222656 18.941406 24.222656 L 14.867188 23.511719 C 14.664062 23.480469 14.527344 23.285156 14.5625 23.082031 C 14.597656 22.878906 14.792969 22.742188 14.996094 22.777344 L 18.703125 23.417969 L 19.164062 20.863281 C 19.199219 20.65625 19.390625 20.523438 19.597656 20.5625 C 19.800781 20.597656 19.9375 20.792969 19.902344 20.996094 L 19.375 23.917969 C 19.34375 24.097656 19.183594 24.222656 19.007812 24.222656 " fill-opacity="1" fillRule="nonzero"/></g><path fill="#c6ab7c" d="M 10.332031 8.414062 C 10.308594 8.414062 10.285156 8.410156 10.261719 8.40625 C 10.058594 8.367188 9.925781 8.175781 9.957031 7.96875 L 10.484375 5.050781 C 10.519531 4.84375 10.714844 4.714844 10.917969 4.746094 L 15 5.453125 C 15.203125 5.488281 15.339844 5.683594 15.304688 5.882812 C 15.269531 6.089844 15.082031 6.226562 14.871094 6.191406 L 11.15625 5.546875 L 10.699219 8.101562 C 10.664062 8.285156 10.507812 8.414062 10.332031 8.414062 " fill-opacity="1" fillRule="nonzero"/></svg>